<mxfile host="app.diagrams.net" modified="2022-05-24T20:12:58.342Z" agent="5.0 (Macintosh; Intel Mac OS X 10_15_7) AppleWebKit/537.36 (KHTML, like Gecko) Chrome/101.0.4951.64 Safari/537.36" etag="C916va8otJPP7cudzKb1" version="18.1.2" type="github">
  <diagram id="FyDQ2Oey5Ob_zWsnqq0P" name="Page-1">
    <mxGraphModel dx="946" dy="545" grid="0" gridSize="10" guides="1" tooltips="1" connect="1" arrows="1" fold="1" page="1" pageScale="1" pageWidth="827" pageHeight="1169" background="#FFFFFF" math="0" shadow="0">
      <root>
        <mxCell id="0" />
        <mxCell id="1" parent="0" />
        <mxCell id="65L432co8-f4beZUu5qo-33" style="edgeStyle=orthogonalEdgeStyle;rounded=0;orthogonalLoop=1;jettySize=auto;html=1;startArrow=classic;startFill=1;" parent="1" source="65L432co8-f4beZUu5qo-2" edge="1">
          <mxGeometry relative="1" as="geometry">
            <mxPoint x="744" y="190" as="targetPoint" />
          </mxGeometry>
        </mxCell>
        <mxCell id="65L432co8-f4beZUu5qo-34" value="Create and access &lt;br&gt;via Redshift Spectrum" style="edgeLabel;html=1;align=center;verticalAlign=middle;resizable=0;points=[];" parent="65L432co8-f4beZUu5qo-33" vertex="1" connectable="0">
          <mxGeometry x="0.0417" y="-2" relative="1" as="geometry">
            <mxPoint y="1" as="offset" />
          </mxGeometry>
        </mxCell>
        <mxCell id="65L432co8-f4beZUu5qo-2" value="" style="sketch=0;points=[[0,0,0],[0.25,0,0],[0.5,0,0],[0.75,0,0],[1,0,0],[0,1,0],[0.25,1,0],[0.5,1,0],[0.75,1,0],[1,1,0],[0,0.25,0],[0,0.5,0],[0,0.75,0],[1,0.25,0],[1,0.5,0],[1,0.75,0]];outlineConnect=0;fontColor=#232F3E;gradientColor=#4D72F3;gradientDirection=north;fillColor=#3334B9;strokeColor=#ffffff;dashed=0;verticalLabelPosition=bottom;verticalAlign=top;align=center;html=1;fontSize=12;fontStyle=0;aspect=fixed;shape=mxgraph.aws4.resourceIcon;resIcon=mxgraph.aws4.redshift;" parent="1" vertex="1">
          <mxGeometry x="710" y="273" width="68" height="68" as="geometry" />
        </mxCell>
        <mxCell id="65L432co8-f4beZUu5qo-23" style="edgeStyle=orthogonalEdgeStyle;rounded=0;orthogonalLoop=1;jettySize=auto;html=1;" parent="1" source="65L432co8-f4beZUu5qo-4" edge="1">
          <mxGeometry relative="1" as="geometry">
            <mxPoint x="60" y="250" as="targetPoint" />
          </mxGeometry>
        </mxCell>
        <mxCell id="65L432co8-f4beZUu5qo-4" value="" style="sketch=0;points=[[0,0,0],[0.25,0,0],[0.5,0,0],[0.75,0,0],[1,0,0],[0,1,0],[0.25,1,0],[0.5,1,0],[0.75,1,0],[1,1,0],[0,0.25,0],[0,0.5,0],[0,0.75,0],[1,0.25,0],[1,0.5,0],[1,0.75,0]];outlineConnect=0;fontColor=#232F3E;gradientColor=#60A337;gradientDirection=north;fillColor=#277116;strokeColor=#ffffff;dashed=0;verticalLabelPosition=bottom;verticalAlign=top;align=center;html=1;fontSize=12;fontStyle=0;aspect=fixed;shape=mxgraph.aws4.resourceIcon;resIcon=mxgraph.aws4.s3;" parent="1" vertex="1">
          <mxGeometry x="140" y="160" width="58" height="58" as="geometry" />
        </mxCell>
        <mxCell id="vrgP6LqVxDvgSJnfd46K-6" style="edgeStyle=orthogonalEdgeStyle;rounded=0;orthogonalLoop=1;jettySize=auto;html=1;startArrow=none;startFill=0;" edge="1" parent="1" source="65L432co8-f4beZUu5qo-5">
          <mxGeometry relative="1" as="geometry">
            <mxPoint x="310" y="295" as="targetPoint" />
          </mxGeometry>
        </mxCell>
        <mxCell id="65L432co8-f4beZUu5qo-5" value="" style="sketch=0;points=[[0,0,0],[0.25,0,0],[0.5,0,0],[0.75,0,0],[1,0,0],[0,1,0],[0.25,1,0],[0.5,1,0],[0.75,1,0],[1,1,0],[0,0.25,0],[0,0.5,0],[0,0.75,0],[1,0.25,0],[1,0.5,0],[1,0.75,0]];outlineConnect=0;fontColor=#232F3E;gradientColor=#60A337;gradientDirection=north;fillColor=#277116;strokeColor=#ffffff;dashed=0;verticalLabelPosition=bottom;verticalAlign=top;align=center;html=1;fontSize=12;fontStyle=0;aspect=fixed;shape=mxgraph.aws4.resourceIcon;resIcon=mxgraph.aws4.s3;" parent="1" vertex="1">
          <mxGeometry x="140" y="266" width="58" height="58" as="geometry" />
        </mxCell>
        <mxCell id="65L432co8-f4beZUu5qo-25" style="edgeStyle=orthogonalEdgeStyle;rounded=0;orthogonalLoop=1;jettySize=auto;html=1;entryX=0;entryY=0.5;entryDx=0;entryDy=0;entryPerimeter=0;" parent="1" source="65L432co8-f4beZUu5qo-6" target="65L432co8-f4beZUu5qo-5" edge="1">
          <mxGeometry relative="1" as="geometry" />
        </mxCell>
        <mxCell id="65L432co8-f4beZUu5qo-6" value="" style="outlineConnect=0;dashed=0;verticalLabelPosition=bottom;verticalAlign=top;align=center;html=1;shape=mxgraph.aws3.lambda_function;fillColor=#F58534;gradientColor=none;" parent="1" vertex="1">
          <mxGeometry x="20" y="260" width="69" height="70" as="geometry" />
        </mxCell>
        <mxCell id="vrgP6LqVxDvgSJnfd46K-1" style="edgeStyle=orthogonalEdgeStyle;rounded=0;orthogonalLoop=1;jettySize=auto;html=1;startArrow=none;startFill=0;" edge="1" parent="1" source="65L432co8-f4beZUu5qo-7">
          <mxGeometry relative="1" as="geometry">
            <mxPoint x="440" y="304" as="targetPoint" />
          </mxGeometry>
        </mxCell>
        <mxCell id="65L432co8-f4beZUu5qo-7" value="" style="sketch=0;points=[[0,0,0],[0.25,0,0],[0.5,0,0],[0.75,0,0],[1,0,0],[0,1,0],[0.25,1,0],[0.5,1,0],[0.75,1,0],[1,1,0],[0,0.25,0],[0,0.5,0],[0,0.75,0],[1,0.25,0],[1,0.5,0],[1,0.75,0]];outlineConnect=0;fontColor=#232F3E;gradientColor=#4AB29A;gradientDirection=north;fillColor=#116D5B;strokeColor=#ffffff;dashed=0;verticalLabelPosition=bottom;verticalAlign=top;align=center;html=1;fontSize=12;fontStyle=0;aspect=fixed;shape=mxgraph.aws4.resourceIcon;resIcon=mxgraph.aws4.forecast;" parent="1" vertex="1">
          <mxGeometry x="320" y="272" width="63" height="63" as="geometry" />
        </mxCell>
        <mxCell id="vrgP6LqVxDvgSJnfd46K-3" style="edgeStyle=orthogonalEdgeStyle;rounded=0;orthogonalLoop=1;jettySize=auto;html=1;startArrow=none;startFill=0;" edge="1" parent="1" source="65L432co8-f4beZUu5qo-8">
          <mxGeometry relative="1" as="geometry">
            <mxPoint x="570" y="306" as="targetPoint" />
          </mxGeometry>
        </mxCell>
        <mxCell id="vrgP6LqVxDvgSJnfd46K-5" style="edgeStyle=orthogonalEdgeStyle;rounded=0;orthogonalLoop=1;jettySize=auto;html=1;startArrow=none;startFill=0;" edge="1" parent="1" source="65L432co8-f4beZUu5qo-8">
          <mxGeometry relative="1" as="geometry">
            <mxPoint x="484" y="410" as="targetPoint" />
          </mxGeometry>
        </mxCell>
        <mxCell id="65L432co8-f4beZUu5qo-8" value="" style="sketch=0;points=[[0,0,0],[0.25,0,0],[0.5,0,0],[0.75,0,0],[1,0,0],[0,1,0],[0.25,1,0],[0.5,1,0],[0.75,1,0],[1,1,0],[0,0.25,0],[0,0.5,0],[0,0.75,0],[1,0.25,0],[1,0.5,0],[1,0.75,0]];outlineConnect=0;fontColor=#232F3E;gradientColor=#4AB29A;gradientDirection=north;fillColor=#116D5B;strokeColor=#ffffff;dashed=0;verticalLabelPosition=bottom;verticalAlign=top;align=center;html=1;fontSize=12;fontStyle=0;aspect=fixed;shape=mxgraph.aws4.resourceIcon;resIcon=mxgraph.aws4.forecast;" parent="1" vertex="1">
          <mxGeometry x="450" y="272" width="68" height="68" as="geometry" />
        </mxCell>
        <mxCell id="65L432co8-f4beZUu5qo-9" value="" style="sketch=0;points=[[0,0,0],[0.25,0,0],[0.5,0,0],[0.75,0,0],[1,0,0],[0,1,0],[0.25,1,0],[0.5,1,0],[0.75,1,0],[1,1,0],[0,0.25,0],[0,0.5,0],[0,0.75,0],[1,0.25,0],[1,0.5,0],[1,0.75,0]];outlineConnect=0;fontColor=#232F3E;gradientColor=#60A337;gradientDirection=north;fillColor=#277116;strokeColor=#ffffff;dashed=0;verticalLabelPosition=bottom;verticalAlign=top;align=center;html=1;fontSize=12;fontStyle=0;aspect=fixed;shape=mxgraph.aws4.resourceIcon;resIcon=mxgraph.aws4.s3;" parent="1" vertex="1">
          <mxGeometry x="456" y="418" width="62" height="62" as="geometry" />
        </mxCell>
        <mxCell id="vrgP6LqVxDvgSJnfd46K-4" style="edgeStyle=orthogonalEdgeStyle;rounded=0;orthogonalLoop=1;jettySize=auto;html=1;startArrow=none;startFill=0;" edge="1" parent="1" source="65L432co8-f4beZUu5qo-10">
          <mxGeometry relative="1" as="geometry">
            <mxPoint x="614" y="410" as="targetPoint" />
          </mxGeometry>
        </mxCell>
        <mxCell id="65L432co8-f4beZUu5qo-10" value="" style="sketch=0;points=[[0,0,0],[0.25,0,0],[0.5,0,0],[0.75,0,0],[1,0,0],[0,1,0],[0.25,1,0],[0.5,1,0],[0.75,1,0],[1,1,0],[0,0.25,0],[0,0.5,0],[0,0.75,0],[1,0.25,0],[1,0.5,0],[1,0.75,0]];outlineConnect=0;fontColor=#232F3E;gradientColor=#4AB29A;gradientDirection=north;fillColor=#116D5B;strokeColor=#ffffff;dashed=0;verticalLabelPosition=bottom;verticalAlign=top;align=center;html=1;fontSize=12;fontStyle=0;aspect=fixed;shape=mxgraph.aws4.resourceIcon;resIcon=mxgraph.aws4.forecast;" parent="1" vertex="1">
          <mxGeometry x="580" y="272" width="68" height="68" as="geometry" />
        </mxCell>
        <mxCell id="65L432co8-f4beZUu5qo-31" style="edgeStyle=orthogonalEdgeStyle;rounded=0;orthogonalLoop=1;jettySize=auto;html=1;" parent="1" source="65L432co8-f4beZUu5qo-11" edge="1">
          <mxGeometry relative="1" as="geometry">
            <mxPoint x="750" y="350" as="targetPoint" />
          </mxGeometry>
        </mxCell>
        <mxCell id="65L432co8-f4beZUu5qo-11" value="" style="sketch=0;points=[[0,0,0],[0.25,0,0],[0.5,0,0],[0.75,0,0],[1,0,0],[0,1,0],[0.25,1,0],[0.5,1,0],[0.75,1,0],[1,1,0],[0,0.25,0],[0,0.5,0],[0,0.75,0],[1,0.25,0],[1,0.5,0],[1,0.75,0]];outlineConnect=0;fontColor=#232F3E;gradientColor=#60A337;gradientDirection=north;fillColor=#277116;strokeColor=#ffffff;dashed=0;verticalLabelPosition=bottom;verticalAlign=top;align=center;html=1;fontSize=12;fontStyle=0;aspect=fixed;shape=mxgraph.aws4.resourceIcon;resIcon=mxgraph.aws4.s3;" parent="1" vertex="1">
          <mxGeometry x="585" y="422" width="58" height="58" as="geometry" />
        </mxCell>
        <mxCell id="65L432co8-f4beZUu5qo-13" value="AWS Forecast&lt;br&gt;Create Predictor" style="text;html=1;resizable=0;autosize=1;align=center;verticalAlign=middle;points=[];fillColor=none;strokeColor=none;rounded=0;" parent="1" vertex="1">
          <mxGeometry x="437" y="236" width="100" height="30" as="geometry" />
        </mxCell>
        <mxCell id="65L432co8-f4beZUu5qo-14" value="AWS Forecast&amp;nbsp; &lt;br&gt;Create Forecast&amp;nbsp;&lt;br&gt;and Query" style="text;html=1;resizable=0;autosize=1;align=center;verticalAlign=middle;points=[];fillColor=none;strokeColor=none;rounded=0;" parent="1" vertex="1">
          <mxGeometry x="565" y="218" width="100" height="50" as="geometry" />
        </mxCell>
        <mxCell id="65L432co8-f4beZUu5qo-15" value="S3 raw data" style="text;html=1;resizable=0;autosize=1;align=center;verticalAlign=middle;points=[];fillColor=none;strokeColor=none;rounded=0;" parent="1" vertex="1">
          <mxGeometry x="129" y="128.09" width="80" height="20" as="geometry" />
        </mxCell>
        <mxCell id="65L432co8-f4beZUu5qo-16" value="S3 data for&lt;br&gt;Forecast" style="text;html=1;resizable=0;autosize=1;align=center;verticalAlign=middle;points=[];fillColor=none;strokeColor=none;rounded=0;" parent="1" vertex="1">
          <mxGeometry x="140" y="335" width="70" height="30" as="geometry" />
        </mxCell>
        <mxCell id="65L432co8-f4beZUu5qo-17" value="AWS &lt;br&gt;Lambda" style="text;html=1;resizable=0;autosize=1;align=center;verticalAlign=middle;points=[];fillColor=none;strokeColor=none;rounded=0;" parent="1" vertex="1">
          <mxGeometry x="24.5" y="345" width="60" height="30" as="geometry" />
        </mxCell>
        <mxCell id="65L432co8-f4beZUu5qo-18" value="S3 results key" style="text;html=1;resizable=0;autosize=1;align=center;verticalAlign=middle;points=[];fillColor=none;strokeColor=none;rounded=0;" parent="1" vertex="1">
          <mxGeometry x="439" y="490" width="90" height="20" as="geometry" />
        </mxCell>
        <mxCell id="65L432co8-f4beZUu5qo-19" value="S3 results key" style="text;html=1;resizable=0;autosize=1;align=center;verticalAlign=middle;points=[];fillColor=none;strokeColor=none;rounded=0;" parent="1" vertex="1">
          <mxGeometry x="570" y="490" width="90" height="20" as="geometry" />
        </mxCell>
        <mxCell id="65L432co8-f4beZUu5qo-20" value="Redshift&amp;nbsp;" style="text;html=1;resizable=0;autosize=1;align=center;verticalAlign=middle;points=[];fillColor=none;strokeColor=none;rounded=0;" parent="1" vertex="1">
          <mxGeometry x="780" y="297" width="60" height="20" as="geometry" />
        </mxCell>
        <mxCell id="65L432co8-f4beZUu5qo-36" style="edgeStyle=orthogonalEdgeStyle;rounded=0;orthogonalLoop=1;jettySize=auto;html=1;entryX=0;entryY=0.5;entryDx=0;entryDy=0;entryPerimeter=0;startArrow=classic;startFill=1;" parent="1" source="65L432co8-f4beZUu5qo-32" target="65L432co8-f4beZUu5qo-35" edge="1">
          <mxGeometry relative="1" as="geometry" />
        </mxCell>
        <mxCell id="65L432co8-f4beZUu5qo-32" value="" style="sketch=0;outlineConnect=0;fontColor=#232F3E;gradientColor=none;fillColor=#4D27AA;strokeColor=none;dashed=0;verticalLabelPosition=bottom;verticalAlign=top;align=center;html=1;fontSize=12;fontStyle=0;aspect=fixed;pointerEvents=1;shape=mxgraph.aws4.glue_data_catalog;" parent="1" vertex="1">
          <mxGeometry x="710" y="130" width="50" height="54.17" as="geometry" />
        </mxCell>
        <mxCell id="65L432co8-f4beZUu5qo-35" value="" style="sketch=0;points=[[0,0,0],[0.25,0,0],[0.5,0,0],[0.75,0,0],[1,0,0],[0,1,0],[0.25,1,0],[0.5,1,0],[0.75,1,0],[1,1,0],[0,0.25,0],[0,0.5,0],[0,0.75,0],[1,0.25,0],[1,0.5,0],[1,0.75,0]];outlineConnect=0;fontColor=#232F3E;gradientColor=#945DF2;gradientDirection=north;fillColor=#5A30B5;strokeColor=#ffffff;dashed=0;verticalLabelPosition=bottom;verticalAlign=top;align=center;html=1;fontSize=12;fontStyle=0;aspect=fixed;shape=mxgraph.aws4.resourceIcon;resIcon=mxgraph.aws4.athena;" parent="1" vertex="1">
          <mxGeometry x="827" y="128.09" width="58" height="58" as="geometry" />
        </mxCell>
        <mxCell id="65L432co8-f4beZUu5qo-37" value="Glue Data &lt;br&gt;Catalog" style="text;html=1;resizable=0;autosize=1;align=center;verticalAlign=middle;points=[];fillColor=none;strokeColor=none;rounded=0;" parent="1" vertex="1">
          <mxGeometry x="705" y="85" width="70" height="30" as="geometry" />
        </mxCell>
        <mxCell id="65L432co8-f4beZUu5qo-38" value="Athena" style="text;html=1;resizable=0;autosize=1;align=center;verticalAlign=middle;points=[];fillColor=none;strokeColor=none;rounded=0;" parent="1" vertex="1">
          <mxGeometry x="831" y="95" width="50" height="20" as="geometry" />
        </mxCell>
        <mxCell id="65L432co8-f4beZUu5qo-40" value="AWS Forecast&lt;br&gt;&amp;nbsp;Dataset" style="text;html=1;resizable=0;autosize=1;align=center;verticalAlign=middle;points=[];fillColor=none;strokeColor=none;rounded=0;" parent="1" vertex="1">
          <mxGeometry x="306.5" y="236" width="90" height="30" as="geometry" />
        </mxCell>
        <mxCell id="vrgP6LqVxDvgSJnfd46K-7" value="&lt;font style=&quot;font-size: 10px;&quot;&gt;Dataset Import Job&lt;/font&gt;" style="text;html=1;resizable=0;autosize=1;align=center;verticalAlign=middle;points=[];fillColor=none;strokeColor=none;rounded=0;" vertex="1" parent="1">
          <mxGeometry x="206.5" y="266" width="100" height="20" as="geometry" />
        </mxCell>
      </root>
    </mxGraphModel>
  </diagram>
</mxfile>
